<?xml version="1.0" encoding="utf-8"?>
<!-- Svg Vector Icons : http://www.onlinewebfonts.com/icon -->
<!DOCTYPE svg PUBLIC "-//W3C//DTD SVG 1.1//EN" "http://www.w3.org/Graphics/SVG/1.1/DTD/svg11.dtd">
<svg version="1.1" xmlns="http://www.w3.org/2000/svg" xmlns:xlink="http://www.w3.org/1999/xlink" x="0px" y="0px" viewBox="0 0 1000 1000" enable-background="new 0 0 1000 1000" xml:space="preserve">
<metadata> Svg Vector Icons : http://www.onlinewebfonts.com/icon </metadata>
<g><path d="M889.7,300.1c0.4,8.6,0.6,17.4,0.6,26c0,265.8-202.2,572.1-572,572.1C204.6,898.2,99,864.9,10,807.8c15.8,1.9,31.7,2.8,47.9,2.8c94.3,0,180.9-32.2,249.7-86c-87.9-1.7-162.2-59.7-187.8-139.6c12.3,2.3,24.9,3.5,37.8,3.5c18.4,0,36.2-2.4,53-7c-92-18.5-161.3-99.8-161.3-197.2c0-0.9,0-1.7,0-2.5c27.1,15.1,58.2,24.1,91.1,25.2C86.5,370.9,51,309.4,51,239.6c0-36.8,9.9-71.4,27.3-101.1c99.1,121.7,247.3,201.7,414.4,210.1c-3.4-14.8-5.2-30-5.2-45.9c0-111,90-201,201-201c57.8,0,110.1,24.3,146.8,63.4c45.8-9.1,88.8-25.8,127.7-48.8c-15,46.9-46.9,86.3-88.4,111.2c40.7-4.9,79.4-15.6,115.5-31.6C963,236.4,929,271.8,889.7,300.1L889.7,300.1z"/></g>
</svg>